{
	"asset":{
		"generator":"Khronos glTF Blender I/O v4.2.83",
		"version":"2.0"
	},
	"extensionsUsed":[
		"KHR_materials_specular"
	],
	"scene":0,
	"scenes":[
		{
			"extras":{
				"INSTALOD_Panels":{},
				"texToolsSettings":{}
			},
			"name":"Scene",
			"nodes":[
				0
			]
		}
	],
	"nodes":[
		{
			"mesh":0,
			"name":"TrafficCone_Small_Orange"
		}
	],
	"materials":[
		{
			"doubleSided":true,
			"extensions":{
				"KHR_materials_specular":{
					"specularColorFactor":[
						1.5,
						1.5,
						1.5
					]
				}
			},
			"name":"plastic_orange_traffic",
			"pbrMetallicRoughness":{
				"baseColorFactor":[
					0.7304610013961792,
					0.08649999648332596,
					0.0021250001154839993,
					1
				],
				"metallicFactor":0,
				"roughnessFactor":0.5527864098548889
			}
		},
		{
			"doubleSided":true,
			"extensions":{
				"KHR_materials_specular":{
					"specularColorFactor":[
						1.5,
						1.5,
						1.5
					]
				}
			},
			"name":"plastic_white_traffic",
			"pbrMetallicRoughness":{
				"baseColorFactor":[
					0.8796229958534241,
					0.8713669776916504,
					0.8227859735488892,
					1
				],
				"metallicFactor":0,
				"roughnessFactor":0.5527864098548889
			}
		}
	],
	"meshes":[
		{
			"name":"TrafficCone_Small_Orange",
			"primitives":[
				{
					"attributes":{
						"POSITION":0,
						"NORMAL":1,
						"TEXCOORD_0":2
					},
					"indices":3,
					"material":0
				},
				{
					"attributes":{
						"POSITION":4,
						"NORMAL":5,
						"TEXCOORD_0":6
					},
					"indices":7,
					"material":1
				}
			]
		}
	],
	"accessors":[
		{
			"bufferView":0,
			"componentType":5126,
			"count":404,
			"max":[
				0,
				0.3199999928474426,
				0.14399999380111694
			],
			"min":[
				-0.2879999876022339,
				-1.087169732016946e-08,
				-0.14399999380111694
			],
			"type":"VEC3"
		},
		{
			"bufferView":1,
			"componentType":5126,
			"count":404,
			"type":"VEC3"
		},
		{
			"bufferView":2,
			"componentType":5126,
			"count":404,
			"type":"VEC2"
		},
		{
			"bufferView":3,
			"componentType":5123,
			"count":1104,
			"type":"SCALAR"
		},
		{
			"bufferView":4,
			"componentType":5126,
			"count":40,
			"max":[
				-0.08291999250650406,
				0.22227700054645538,
				0.06108001247048378
			],
			"min":[
				-0.20508000254631042,
				0.1373319923877716,
				-0.06107999011874199
			],
			"type":"VEC3"
		},
		{
			"bufferView":5,
			"componentType":5126,
			"count":40,
			"type":"VEC3"
		},
		{
			"bufferView":6,
			"componentType":5126,
			"count":40,
			"type":"VEC2"
		},
		{
			"bufferView":7,
			"componentType":5123,
			"count":96,
			"type":"SCALAR"
		}
	],
	"bufferViews":[
		{
			"buffer":0,
			"byteLength":4848,
			"byteOffset":0,
			"target":34962
		},
		{
			"buffer":0,
			"byteLength":4848,
			"byteOffset":4848,
			"target":34962
		},
		{
			"buffer":0,
			"byteLength":3232,
			"byteOffset":9696,
			"target":34962
		},
		{
			"buffer":0,
			"byteLength":2208,
			"byteOffset":12928,
			"target":34963
		},
		{
			"buffer":0,
			"byteLength":480,
			"byteOffset":15136,
			"target":34962
		},
		{
			"buffer":0,
			"byteLength":480,
			"byteOffset":15616,
			"target":34962
		},
		{
			"buffer":0,
			"byteLength":320,
			"byteOffset":16096,
			"target":34962
		},
		{
			"buffer":0,
			"byteLength":192,
			"byteOffset":16416,
			"target":34963
		}
	],
	"buffers":[
		{
			"byteLength":16608,
			"uri":"TrafficCone_Small_Orange.bin"
		}
	]
}
