{
	"asset":{
		"generator":"Khronos glTF Blender I/O v4.2.83",
		"version":"2.0"
	},
	"extensionsUsed":[
		"KHR_materials_specular"
	],
	"scene":0,
	"scenes":[
		{
			"extras":{
				"INSTALOD_Panels":{},
				"texToolsSettings":{}
			},
			"name":"Scene",
			"nodes":[
				0
			]
		}
	],
	"nodes":[
		{
			"mesh":0,
			"name":"TrafficCone_Large_Orange"
		}
	],
	"materials":[
		{
			"doubleSided":true,
			"extensions":{
				"KHR_materials_specular":{
					"specularColorFactor":[
						1.5,
						1.5,
						1.5
					]
				}
			},
			"name":"plastic_orange_traffic",
			"pbrMetallicRoughness":{
				"baseColorFactor":[
					0.7304610013961792,
					0.08649999648332596,
					0.0021250001154839993,
					1
				],
				"metallicFactor":0,
				"roughnessFactor":0.5527864098548889
			}
		},
		{
			"doubleSided":true,
			"extensions":{
				"KHR_materials_specular":{
					"specularColorFactor":[
						1.5,
						1.5,
						1.5
					]
				}
			},
			"name":"plastic_white_traffic",
			"pbrMetallicRoughness":{
				"baseColorFactor":[
					0.8796229958534241,
					0.8713669776916504,
					0.8227859735488892,
					1
				],
				"metallicFactor":0,
				"roughnessFactor":0.5527864098548889
			}
		}
	],
	"meshes":[
		{
			"name":"TrafficCone_Large_Orange",
			"primitives":[
				{
					"attributes":{
						"POSITION":0,
						"NORMAL":1,
						"TEXCOORD_0":2
					},
					"indices":3,
					"material":0
				},
				{
					"attributes":{
						"POSITION":4,
						"NORMAL":5,
						"TEXCOORD_0":6
					},
					"indices":7,
					"material":1
				}
			]
		}
	],
	"accessors":[
		{
			"bufferView":0,
			"componentType":5126,
			"count":484,
			"max":[
				0,
				0.5099999904632568,
				0.14499999582767487
			],
			"min":[
				-0.28999999165534973,
				-1.094719515037923e-08,
				-0.14499999582767487
			],
			"type":"VEC3"
		},
		{
			"bufferView":1,
			"componentType":5126,
			"count":484,
			"type":"VEC3"
		},
		{
			"bufferView":2,
			"componentType":5126,
			"count":484,
			"type":"VEC2"
		},
		{
			"bufferView":3,
			"componentType":5123,
			"count":1488,
			"type":"SCALAR"
		},
		{
			"bufferView":4,
			"componentType":5126,
			"count":80,
			"max":[
				-0.07294799387454987,
				0.39275699853897095,
				0.0720520168542862
			],
			"min":[
				-0.21705199778079987,
				0.13787198066711426,
				-0.0720519870519638
			],
			"type":"VEC3"
		},
		{
			"bufferView":5,
			"componentType":5126,
			"count":80,
			"type":"VEC3"
		},
		{
			"bufferView":6,
			"componentType":5126,
			"count":80,
			"type":"VEC2"
		},
		{
			"bufferView":7,
			"componentType":5123,
			"count":192,
			"type":"SCALAR"
		}
	],
	"bufferViews":[
		{
			"buffer":0,
			"byteLength":5808,
			"byteOffset":0,
			"target":34962
		},
		{
			"buffer":0,
			"byteLength":5808,
			"byteOffset":5808,
			"target":34962
		},
		{
			"buffer":0,
			"byteLength":3872,
			"byteOffset":11616,
			"target":34962
		},
		{
			"buffer":0,
			"byteLength":2976,
			"byteOffset":15488,
			"target":34963
		},
		{
			"buffer":0,
			"byteLength":960,
			"byteOffset":18464,
			"target":34962
		},
		{
			"buffer":0,
			"byteLength":960,
			"byteOffset":19424,
			"target":34962
		},
		{
			"buffer":0,
			"byteLength":640,
			"byteOffset":20384,
			"target":34962
		},
		{
			"buffer":0,
			"byteLength":384,
			"byteOffset":21024,
			"target":34963
		}
	],
	"buffers":[
		{
			"byteLength":21408,
			"uri":"TrafficCone_Large_Orange.bin"
		}
	]
}
