{
	"asset":{
		"generator":"Khronos glTF Blender I/O v3.6.28",
		"version":"2.0"
	},
	"scene":0,
	"scenes":[
		{
			"name":"Scene",
			"nodes":[
				0
			]
		}
	],
	"nodes":[
		{
			"mesh":0,
			"name":"FSAI_Wheel",
			"rotation":[
				0.7071068286895752,
				0,
				0,
				0.7071068286895752
			]
		}
	],
	"materials":[
		{
			"doubleSided":true,
			"name":"alu",
			"pbrMetallicRoughness":{
				"baseColorFactor":[
					0.800000011920929,
					0.800000011920929,
					0.800000011920929,
					1
				],
				"metallicFactor":0,
				"roughnessFactor":0.2254033088684082
			}
		},
		{
			"doubleSided":true,
			"name":"tire",
			"pbrMetallicRoughness":{
				"baseColorTexture":{
					"index":0
				},
				"metallicFactor":0,
				"roughnessFactor":0.7550510168075562
			}
		},
		{
			"doubleSided":true,
			"name":"alu_black",
			"pbrMetallicRoughness":{
				"baseColorFactor":[
					0.20000000298023224,
					0.20000000298023224,
					0.20000000298023224,
					1
				],
				"metallicFactor":0,
				"roughnessFactor":0.0780455470085144
			}
		},
		{
			"doubleSided":true,
			"name":"interior",
			"pbrMetallicRoughness":{
				"baseColorTexture":{
					"index":1
				},
				"metallicFactor":0,
				"roughnessFactor":0.7550510168075562
			}
		}
	],
	"meshes":[
		{
			"name":"FSAI_Wheel",
			"primitives":[
				{
					"attributes":{
						"POSITION":0,
						"NORMAL":1,
						"TEXCOORD_0":2
					},
					"indices":3,
					"material":0
				},
				{
					"attributes":{
						"POSITION":4,
						"NORMAL":5,
						"TEXCOORD_0":6
					},
					"indices":7,
					"material":1
				},
				{
					"attributes":{
						"POSITION":8,
						"NORMAL":9,
						"TEXCOORD_0":10
					},
					"indices":11,
					"material":2
				},
				{
					"attributes":{
						"POSITION":12,
						"NORMAL":13,
						"TEXCOORD_0":14
					},
					"indices":15,
					"material":3
				}
			]
		}
	],
	"textures":[
		{
			"sampler":0,
			"source":0
		},
		{
			"sampler":0,
			"source":0
		}
	],
	"images":[
		{
			"bufferView":8,
			"mimeType":"image/jpeg",
			"name":"AFS_RaceCar"
		}
	],
	"accessors":[
		{
			"bufferView":0,
			"componentType":5126,
			"count":1821,
			"max":[
				0.18246500194072723,
				0.09618700295686722,
				0.18841299414634705
			],
			"min":[
				-0.18793700635433197,
				-0.12761999666690826,
				-0.18547199666500092
			],
			"type":"VEC3"
		},
		{
			"bufferView":1,
			"componentType":5126,
			"count":1821,
			"type":"VEC3"
		},
		{
			"bufferView":2,
			"componentType":5126,
			"count":1821,
			"type":"VEC2"
		},
		{
			"bufferView":3,
			"componentType":5123,
			"count":6720,
			"type":"SCALAR"
		},
		{
			"bufferView":4,
			"componentType":5126,
			"count":645,
			"max":[
				0.2538970112800598,
				0.11038000136613846,
				0.2587150037288666
			],
			"min":[
				-0.25936898589134216,
				-0.12944599986076355,
				-0.25753000378608704
			],
			"type":"VEC3"
		},
		{
			"bufferView":5,
			"componentType":5126,
			"count":645,
			"type":"VEC3"
		},
		{
			"bufferView":6,
			"componentType":5126,
			"count":645,
			"type":"VEC2"
		},
		{
			"bufferView":7,
			"componentType":5123,
			"count":3072,
			"type":"SCALAR"
		},
		{
			"bufferView":9,
			"componentType":5126,
			"count":1052,
			"max":[
				0.18071900308132172,
				0.09593900293111801,
				0.18128199875354767
			],
			"min":[
				-0.18619099259376526,
				-0.12761999666690826,
				-0.18547199666500092
			],
			"type":"VEC3"
		},
		{
			"bufferView":10,
			"componentType":5126,
			"count":1052,
			"type":"VEC3"
		},
		{
			"bufferView":11,
			"componentType":5126,
			"count":1052,
			"type":"VEC2"
		},
		{
			"bufferView":12,
			"componentType":5123,
			"count":3876,
			"type":"SCALAR"
		},
		{
			"bufferView":13,
			"componentType":5126,
			"count":13,
			"max":[
				0.1353839933872223,
				-0.03829900175333023,
				0.1377979964017868
			],
			"min":[
				-0.14085599780082703,
				-0.04569000005722046,
				-0.13834300637245178
			],
			"type":"VEC3"
		},
		{
			"bufferView":14,
			"componentType":5126,
			"count":13,
			"type":"VEC3"
		},
		{
			"bufferView":15,
			"componentType":5126,
			"count":13,
			"type":"VEC2"
		},
		{
			"bufferView":16,
			"componentType":5123,
			"count":36,
			"type":"SCALAR"
		}
	],
	"bufferViews":[
		{
			"buffer":0,
			"byteLength":21852,
			"byteOffset":0,
			"target":34962
		},
		{
			"buffer":0,
			"byteLength":21852,
			"byteOffset":21852,
			"target":34962
		},
		{
			"buffer":0,
			"byteLength":14568,
			"byteOffset":43704,
			"target":34962
		},
		{
			"buffer":0,
			"byteLength":13440,
			"byteOffset":58272,
			"target":34963
		},
		{
			"buffer":0,
			"byteLength":7740,
			"byteOffset":71712,
			"target":34962
		},
		{
			"buffer":0,
			"byteLength":7740,
			"byteOffset":79452,
			"target":34962
		},
		{
			"buffer":0,
			"byteLength":5160,
			"byteOffset":87192,
			"target":34962
		},
		{
			"buffer":0,
			"byteLength":6144,
			"byteOffset":92352,
			"target":34963
		},
		{
			"buffer":0,
			"byteLength":1033123,
			"byteOffset":98496
		},
		{
			"buffer":0,
			"byteLength":12624,
			"byteOffset":1131620,
			"target":34962
		},
		{
			"buffer":0,
			"byteLength":12624,
			"byteOffset":1144244,
			"target":34962
		},
		{
			"buffer":0,
			"byteLength":8416,
			"byteOffset":1156868,
			"target":34962
		},
		{
			"buffer":0,
			"byteLength":7752,
			"byteOffset":1165284,
			"target":34963
		},
		{
			"buffer":0,
			"byteLength":156,
			"byteOffset":1173036,
			"target":34962
		},
		{
			"buffer":0,
			"byteLength":156,
			"byteOffset":1173192,
			"target":34962
		},
		{
			"buffer":0,
			"byteLength":104,
			"byteOffset":1173348,
			"target":34962
		},
		{
			"buffer":0,
			"byteLength":72,
			"byteOffset":1173452,
			"target":34963
		}
	],
	"samplers":[
		{
			"magFilter":9729,
			"minFilter":9987
		}
	],
	"buffers":[
		{
			"byteLength":1173524,
			"uri":"data:application/octet-stream;base64,"
		}
	]
}
